<?xml version="1.0" standalone="no"?>
<!DOCTYPE svg PUBLIC "-//W3C//DTD SVG 20010904//EN"
 "http://www.w3.org/TR/2001/REC-SVG-20010904/DTD/svg10.dtd">
<svg version="1.0" xmlns="http://www.w3.org/2000/svg"
 width="16.000000pt" height="16.000000pt" viewBox="0 0 16.000000 16.000000"
 preserveAspectRatio="xMidYMid meet">
<metadata>
Created by potrace 1.11, written by Peter Selinger 2001-2013
</metadata>
<g transform="translate(0.000000,16.000000) scale(0.005333,-0.005333)"
fill="#000000" stroke="none">
<path d="M210 1980 l0 -810 827 0 826 0 246 -81 c135 -44 247 -82 249 -84 2
-1 -18 -15 -43 -29 l-45 -27 36 -45 c20 -24 35 -46 33 -48 -2 -1 -110 -37
-240 -79 l-237 -77 -826 0 -826 0 0 -245 0 -245 1290 0 1290 0 0 1290 0 1290
-1290 0 -1290 0 0 -810z m2193 125 c14 -6 17 -20 17 -70 l0 -62 -52 18 c-103
36 -218 17 -218 -36 0 -30 30 -54 116 -90 38 -16 88 -41 110 -56 107 -72 96
-218 -21 -278 -43 -22 -65 -26 -160 -29 -72 -2 -126 2 -155 10 l-45 14 -3 68
c-2 37 1 66 5 64 67 -34 98 -42 165 -46 72 -4 79 -2 102 22 14 14 26 30 26 36
0 22 -50 56 -130 89 -161 65 -210 151 -154 263 18 35 67 69 123 85 48 13 240
12 274 -2z m-1689 -6 c81 -17 154 -64 191 -123 28 -47 30 -55 30 -155 0 -97
-2 -110 -27 -152 -33 -57 -87 -105 -147 -133 -40 -18 -70 -21 -228 -24 l-183
-4 0 301 0 301 153 0 c85 0 179 -5 211 -11z m478 -154 c21 -88 44 -188 51
-222 l13 -62 48 162 c27 89 58 190 68 225 l19 62 84 0 c47 0 85 -2 85 -5 0 -2
25 -95 55 -205 30 -110 55 -208 55 -217 0 -38 12 4 55 188 25 107 47 204 50
217 5 20 11 22 84 22 l78 0 -69 -232 c-38 -128 -78 -263 -89 -300 l-20 -68
-87 0 -87 0 -60 214 c-33 118 -61 211 -62 208 -3 -13 -74 -257 -99 -339 l-25
-83 -89 0 -89 0 -21 68 c-11 37 -51 172 -89 300 l-68 233 85 -3 86 -3 38 -160z"/>
<path d="M500 1810 l0 -190 63 0 c68 1 127 18 159 47 49 43 73 153 47 220 -26
70 -108 113 -216 113 l-53 0 0 -190z"/>
<path d="M218 1104 c-3 -3 -4 -14 -1 -25 5 -19 22 -19 817 -19 l812 0 0 25 0
25 -811 0 c-447 0 -814 -3 -817 -6z"/>
<path d="M215 938 l2 -23 810 -3 811 -2 4 25 5 25 -817 0 -817 0 2 -22z"/>
<path d="M216 801 c-4 -5 -3 -16 0 -25 6 -14 85 -16 815 -16 l809 0 0 25 0 25
-809 0 c-476 0 -812 -4 -815 -9z"/>
</g>
</svg>
